# Blender v3.0.0 OBJ File: 'semuanya.blend'
# www.blender.org
mtllib daun1.mtl
o Tree_lp_11.001
v -9.684244 11.880486 -30.852947
v -12.034449 9.848758 -32.480247
v -11.958544 13.296987 -33.115948
v -11.352144 9.359196 -29.075157
v -14.657396 9.217356 -30.239349
v -15.032137 11.650987 -32.736748
v -11.229349 14.938487 -30.103748
v -13.852224 14.307087 -27.862843
v -10.854548 12.504785 -27.606388
v -13.928175 10.858886 -27.227158
v -16.202494 12.275286 -29.490124
v -14.534517 14.796687 -31.267948
vt 0.553071 0.348819
vt 0.529351 0.435793
vt 0.505630 0.351573
vt 0.675053 0.325365
vt 0.619127 0.469619
vt 0.700064 0.256136
vt 0.698774 0.412339
vt 0.747505 0.256136
vt 0.723784 0.343110
vt 0.748875 0.270629
vt 0.725155 0.357603
vt 0.541284 0.227331
vt 0.570972 0.082190
vt 0.619126 0.275339
vt 0.664481 0.096683
vt 0.694244 0.267353
vt 0.717964 0.174868
vt 0.723784 0.245473
vt 0.723069 0.208696
vt 0.725156 0.248893
vt 0.738304 0.151416
vt 0.762023 0.261817
vn 0.6480 -0.1519 -0.7463
vn 0.7243 -0.6471 -0.2382
vn 0.0988 -0.9820 -0.1610
vn -0.3639 -0.6938 -0.6215
vn -0.0245 -0.1807 -0.9832
vn 0.3640 0.6938 0.6215
vn 0.0245 0.1807 0.9832
vn -0.6480 0.1519 0.7463
vn -0.7243 0.6471 0.2382
vn -0.0988 0.9820 0.1610
vn 0.7493 0.4882 -0.4474
vn 0.8727 -0.3130 0.3748
vn -0.1393 -0.8550 0.4996
vn -0.8881 -0.3886 -0.2454
vn -0.3389 0.4415 -0.8308
vn 0.8881 0.3886 0.2454
vn 0.3389 -0.4415 0.8308
vn -0.7493 -0.4882 0.4475
vn -0.8727 0.3130 -0.3748
vn 0.1393 0.8550 -0.4996
g Tree_lp_11.001_Tree_lp_11.001_Tree
usemtl Tree
s 1
f 1/1/1 2/2/1 3/3/1
f 4/4/2 2/5/2 1/1/2
f 5/6/3 2/7/3 4/4/3
f 6/8/4 2/9/4 5/6/4
f 3/10/5 2/11/5 6/8/5
f 7/12/6 8/13/6 9/14/6
f 9/14/7 8/15/7 10/16/7
f 10/16/8 8/17/8 11/18/8
f 11/18/9 8/19/9 12/20/9
f 12/20/10 8/21/10 7/22/10
f 1/1/11 3/3/11 7/12/11
f 4/4/12 1/1/12 9/14/12
f 5/6/13 4/4/13 10/16/13
f 6/8/14 5/6/14 11/18/14
f 3/10/15 6/8/15 12/20/15
f 7/12/16 9/14/16 1/1/16
f 9/14/17 10/16/17 4/4/17
f 10/16/18 11/18/18 5/6/18
f 11/18/19 12/20/19 6/8/19
f 12/20/20 7/22/20 3/10/20
o Tree_lp_11.002
v -12.979433 20.303204 -24.936075
v -16.952814 24.213503 -23.344461
v -17.916513 18.568502 -22.440516
v -15.765974 15.638206 -26.957111
v -21.461485 16.665405 -26.614552
v -22.194994 21.965204 -24.381807
v -14.206675 24.771906 -28.419710
v -13.473135 19.472105 -30.652416
v -17.751642 22.868805 -32.593719
v -18.715345 17.223806 -31.689823
v -22.688692 21.134106 -30.098215
v -19.902185 25.799107 -28.077150
vt 0.088423 0.846225
vt 0.010000 0.846225
vt 0.049211 0.990000
vt 0.166845 0.846225
vt 0.127634 0.990000
vt 0.245268 0.846225
vt 0.206057 0.990000
vt 0.323691 0.846225
vt 0.284480 0.990000
vt 0.402114 0.846225
vt 0.362902 0.990000
vt 0.049211 0.702450
vt 0.127634 0.702450
vt 0.088423 0.558675
vt 0.206057 0.702450
vt 0.166845 0.558675
vt 0.284480 0.702450
vt 0.245268 0.558675
vt 0.362902 0.702450
vt 0.323691 0.558675
vt 0.441325 0.702450
vt 0.402114 0.558675
vn 0.4301 0.0707 0.9000
vn 0.5204 -0.5817 0.6252
vn -0.1249 -0.8584 0.4975
vn -0.6140 -0.3771 0.6934
vn -0.2710 0.1971 0.9422
vn 0.6140 0.3771 -0.6934
vn 0.2710 -0.1971 -0.9422
vn -0.4301 -0.0707 -0.9000
vn -0.5204 0.5817 -0.6252
vn 0.1249 0.8584 -0.4975
vn 0.7123 0.5426 0.4451
vn 0.8584 -0.5129 0.0004
vn -0.1857 -0.9607 -0.2062
vn -0.9770 -0.1819 0.1108
vn -0.4221 0.7472 0.5134
vn 0.9770 0.1819 -0.1108
vn 0.4221 -0.7472 -0.5134
vn -0.7123 -0.5426 -0.4451
vn -0.8584 0.5129 -0.0004
vn 0.1857 0.9607 0.2062
g Tree_lp_11.002_Tree_lp_11.002_Tree
usemtl Tree
s 1
f 13/23/21 14/24/21 15/25/21
f 16/26/22 13/23/22 15/27/22
f 17/28/23 16/26/23 15/29/23
f 18/30/24 17/28/24 15/31/24
f 14/32/25 18/30/25 15/33/25
f 19/34/26 20/35/26 21/36/26
f 20/35/27 22/37/27 21/38/27
f 22/37/28 23/39/28 21/40/28
f 23/39/29 24/41/29 21/42/29
f 24/41/30 19/43/30 21/44/30
f 13/23/31 19/34/31 14/24/31
f 16/26/32 20/35/32 13/23/32
f 17/28/33 22/37/33 16/26/33
f 18/30/34 23/39/34 17/28/34
f 14/32/35 24/41/35 18/30/35
f 19/34/36 13/23/36 20/35/36
f 20/35/37 16/26/37 22/37/37
f 22/37/38 17/28/38 23/39/38
f 23/39/39 18/30/39 24/41/39
f 24/41/40 14/32/40 19/43/40
o Tree_lp_11.003
v -29.808090 13.349303 -15.888821
v -28.072178 15.272303 -14.883503
v -26.406431 13.256204 -16.534466
v -28.469259 10.914403 -15.916649
v -25.905909 11.332503 -14.928528
v -25.660498 14.025902 -14.290012
v -30.031136 14.176502 -13.245327
v -30.276543 11.483102 -13.883835
v -28.830158 12.252802 -11.639386
v -27.864859 10.236702 -13.290344
v -26.128958 12.159702 -12.285028
v -27.467789 14.594602 -12.257206
vt 0.748090 0.583761
vt 0.710500 0.583761
vt 0.729295 0.652675
vt 0.785679 0.583761
vt 0.766884 0.652675
vt 0.823268 0.583761
vt 0.804473 0.652675
vt 0.860858 0.583761
vt 0.842063 0.652675
vt 0.898447 0.583761
vt 0.879652 0.652675
vt 0.729295 0.514847
vt 0.766884 0.514847
vt 0.748090 0.445934
vt 0.804473 0.514847
vt 0.785679 0.445934
vt 0.842063 0.514847
vt 0.823268 0.445934
vt 0.879652 0.514847
vt 0.860858 0.445934
vt 0.917241 0.514847
vt 0.898447 0.445934
vn -0.1404 0.5553 -0.8197
vn -0.1881 -0.0923 -0.9778
vn 0.3786 -0.5331 -0.7566
vn 0.9502 -0.0128 -0.3114
vn 0.4960 0.7575 -0.4246
vn -0.8305 -0.0557 0.5543
vn -0.4866 -0.6810 0.5471
vn 0.1717 -0.5737 0.8009
vn 0.2347 0.1180 0.9649
vn -0.3846 0.4381 0.8125
vn -0.6358 0.7197 -0.2789
vn -0.7378 -0.3994 -0.5442
vn 0.2643 -0.9174 -0.2976
vn 0.9857 -0.1183 0.1202
vn 0.4293 0.8935 0.1318
vn -0.9857 0.1183 -0.1202
vn -0.4293 -0.8935 -0.1318
vn 0.6358 -0.7197 0.2789
vn 0.7378 0.3994 0.5442
vn -0.2643 0.9174 0.2976
g Tree_lp_11.003_Tree_lp_11.003_Tree
usemtl Tree
s 1
f 25/45/41 26/46/41 27/47/41
f 28/48/42 25/45/42 27/49/42
f 29/50/43 28/48/43 27/51/43
f 30/52/44 29/50/44 27/53/44
f 26/54/45 30/52/45 27/55/45
f 31/56/46 32/57/46 33/58/46
f 32/57/47 34/59/47 33/60/47
f 34/59/48 35/61/48 33/62/48
f 35/61/49 36/63/49 33/64/49
f 36/63/50 31/65/50 33/66/50
f 25/45/51 31/56/51 26/46/51
f 28/48/52 32/57/52 25/45/52
f 29/50/53 34/59/53 28/48/53
f 30/52/54 35/61/54 29/50/54
f 26/54/55 36/63/55 30/52/55
f 31/56/56 25/45/56 32/57/56
f 32/57/57 28/48/57 34/59/57
f 34/59/58 29/50/58 35/61/58
f 35/61/59 30/52/59 36/63/59
f 36/63/60 26/54/60 31/65/60
o Tree_lp_11.004
v -23.799967 13.349304 -18.341396
v -22.064054 15.272304 -17.336079
v -21.098764 13.256204 -18.987041
v -22.461134 10.914404 -18.369217
v -19.897783 11.332504 -17.381104
v -19.652376 14.025904 -16.742588
v -24.023012 14.176503 -15.697895
v -24.268419 11.483103 -16.336411
v -22.822035 12.252802 -14.091957
v -21.856737 10.236703 -15.742920
v -20.120836 12.159703 -14.737598
v -21.459665 14.594603 -14.709774
vt 0.748090 0.583761
vt 0.710500 0.583761
vt 0.729295 0.652675
vt 0.785679 0.583761
vt 0.766884 0.652675
vt 0.823268 0.583761
vt 0.804473 0.652675
vt 0.860858 0.583761
vt 0.842063 0.652675
vt 0.898447 0.583761
vt 0.879652 0.652675
vt 0.729295 0.514847
vt 0.766884 0.514847
vt 0.748090 0.445934
vt 0.804473 0.514847
vt 0.785679 0.445934
vt 0.842063 0.514847
vt 0.823268 0.445934
vt 0.879652 0.514847
vt 0.860858 0.445934
vt 0.917241 0.514847
vt 0.898447 0.445934
vn -0.1717 0.5737 -0.8009
vn -0.2347 -0.1180 -0.9649
vn 0.3846 -0.4381 -0.8125
vn 0.8305 0.0557 -0.5543
vn 0.4866 0.6810 -0.5471
vn -0.8305 -0.0557 0.5543
vn -0.4866 -0.6810 0.5471
vn 0.1717 -0.5737 0.8009
vn 0.2347 0.1180 0.9649
vn -0.3846 0.4381 0.8125
vn -0.6358 0.7197 -0.2789
vn -0.7378 -0.3994 -0.5442
vn 0.2643 -0.9174 -0.2976
vn 0.9857 -0.1183 0.1202
vn 0.4293 0.8935 0.1318
vn -0.9857 0.1183 -0.1202
vn -0.4293 -0.8935 -0.1318
vn 0.6358 -0.7197 0.2789
vn 0.7378 0.3994 0.5442
vn -0.2643 0.9174 0.2976
g Tree_lp_11.004_Tree_lp_11.004_Tree
usemtl Tree
s 1
f 37/67/61 38/68/61 39/69/61
f 40/70/62 37/67/62 39/71/62
f 41/72/63 40/70/63 39/73/63
f 42/74/64 41/72/64 39/75/64
f 38/76/65 42/74/65 39/77/65
f 43/78/66 44/79/66 45/80/66
f 44/79/67 46/81/67 45/82/67
f 46/81/68 47/83/68 45/84/68
f 47/83/69 48/85/69 45/86/69
f 48/85/70 43/87/70 45/88/70
f 37/67/71 43/78/71 38/68/71
f 40/70/72 44/79/72 37/67/72
f 41/72/73 46/81/73 40/70/73
f 42/74/74 47/83/74 41/72/74
f 38/76/75 48/85/75 42/74/75
f 43/78/76 37/67/76 44/79/76
f 44/79/77 40/70/77 46/81/77
f 46/81/78 41/72/78 47/83/78
f 47/83/79 42/74/79 48/85/79
f 48/85/80 38/76/80 43/87/80
o Tree_lp_11.005
v -30.589663 21.510101 -13.580313
v -23.350977 21.036800 -12.510431
v -26.001904 25.404102 -17.770296
v -27.493633 14.990802 -12.283813
v -20.992434 14.855702 -15.672512
v -20.070494 21.291502 -19.063341
v -31.782934 22.057302 -20.794458
v -29.424383 15.876205 -23.956539
v -32.704865 15.621504 -17.403629
v -26.773455 11.508904 -18.696678
v -22.185698 15.403006 -22.886662
v -25.281723 21.922203 -24.183161
v -34.721157 16.722300 -12.717052
v -33.541756 19.272202 -16.465021
v -36.738754 15.871504 -16.857792
v -35.404358 12.307902 -14.126423
v -34.647156 12.129504 -18.745434
v -33.495956 16.433702 -20.190769
v -30.231417 17.810400 -13.490905
v -31.382566 13.506202 -12.045574
v -28.139797 14.068403 -15.378544
v -31.336828 10.667703 -15.771317
v -30.157408 13.217604 -19.519291
v -29.474216 17.632002 -18.109921
v -21.822195 21.747232 -23.928102
v -19.276403 23.004230 -21.555643
v -20.783876 19.662930 -21.052752
v -24.355829 19.866430 -21.995943
v -23.375910 19.961130 -18.429331
v -20.236654 21.900431 -18.157213
v -21.916704 25.272831 -22.809633
v -25.055956 23.333530 -23.081751
v -24.508745 25.570930 -20.186213
v -26.016205 22.229630 -19.683329
v -23.470419 23.486729 -17.310862
v -20.936785 25.367531 -19.243021
vt 0.109188 0.373689
vt 0.059594 0.555533
vt 0.010000 0.373689
vt 0.208375 0.373689
vt 0.158782 0.555533
vt 0.307564 0.373689
vt 0.257969 0.555533
vt 0.406751 0.373689
vt 0.357157 0.555533
vt 0.505939 0.373689
vt 0.456345 0.555533
vt 0.059594 0.191844
vt 0.109188 0.010000
vt 0.158782 0.191844
vt 0.208375 0.010000
vt 0.257969 0.191844
vt 0.307564 0.010000
vt 0.357157 0.191844
vt 0.406751 0.010000
vt 0.456345 0.191844
vt 0.505939 0.010000
vt 0.555533 0.191844
vt 0.464198 0.872173
vt 0.400837 0.872173
vt 0.432518 0.988334
vt 0.527559 0.872173
vt 0.495878 0.988334
vt 0.590920 0.872173
vt 0.559239 0.988334
vt 0.654281 0.872173
vt 0.622601 0.988334
vt 0.717642 0.872173
vt 0.685962 0.988334
vt 0.432518 0.756011
vt 0.495878 0.756011
vt 0.464198 0.639849
vt 0.559239 0.756011
vt 0.527559 0.639849
vt 0.622601 0.756011
vt 0.590920 0.639849
vt 0.685962 0.756011
vt 0.654281 0.639849
vt 0.749323 0.756011
vt 0.717642 0.639849
vt 0.515525 0.543765
vt 0.465475 0.543765
vt 0.490500 0.635522
vt 0.565574 0.543765
vt 0.540550 0.635522
vt 0.615624 0.543765
vt 0.590599 0.635522
vt 0.665673 0.543765
vt 0.640649 0.635522
vt 0.715723 0.543765
vt 0.690698 0.635522
vt 0.490500 0.452007
vt 0.540550 0.452007
vt 0.515525 0.360250
vt 0.590599 0.452007
vt 0.565574 0.360250
vt 0.640649 0.452007
vt 0.615624 0.360250
vt 0.690698 0.452007
vt 0.665673 0.360250
vt 0.740748 0.452007
vt 0.715723 0.360250
vn -0.0469 0.7568 0.6520
vn -0.1366 0.1304 0.9820
vn 0.4407 -0.2698 0.8562
vn 0.8872 0.1091 0.4484
vn 0.5858 0.7436 0.3222
vn -0.8872 -0.1091 -0.4484
vn -0.5858 -0.7436 -0.3222
vn 0.0469 -0.7568 -0.6520
vn 0.1366 -0.1304 -0.9820
vn -0.4407 0.2698 -0.8562
vn -0.5541 0.8182 0.1537
vn -0.6993 -0.1953 0.6877
vn 0.2348 -0.8430 0.4841
vn 0.9573 -0.2297 -0.1758
vn 0.4697 0.7969 -0.3799
vn -0.9573 0.2297 0.1758
vn -0.4697 -0.7969 0.3799
vn 0.5541 -0.8182 -0.1537
vn 0.6993 0.1953 -0.6877
vn -0.2348 0.8430 -0.4841
vn -0.7235 0.6550 0.2180
vn -0.8989 -0.0008 0.4382
vn -0.8919 -0.4332 -0.1295
vn -0.7122 -0.0447 -0.7005
vn -0.6081 0.6278 -0.4858
vn 0.7122 0.0447 0.7005
vn 0.6081 -0.6278 0.4858
vn 0.7235 -0.6550 -0.2180
vn 0.8989 0.0008 -0.4382
vn 0.8919 0.4332 0.1295
vn -0.1108 0.8376 0.5350
vn -0.3946 -0.2235 0.8913
vn -0.3833 -0.9232 -0.0272
vn -0.0925 -0.2946 -0.9511
vn 0.0759 0.7936 -0.6037
vn 0.0925 0.2946 0.9511
vn -0.0759 -0.7936 0.6037
vn 0.1108 -0.8376 -0.5350
vn 0.3946 0.2235 -0.8913
vn 0.3833 0.9232 0.0272
vn 0.7219 -0.4096 -0.5577
vn 0.1165 -0.7837 -0.6101
vn -0.0688 -0.9966 0.0454
vn 0.4223 -0.7541 0.5029
vn 0.9110 -0.3914 0.1303
vn -0.4223 0.7541 -0.5029
vn -0.9110 0.3914 -0.1303
vn -0.7220 0.4096 0.5576
vn -0.1165 0.7837 0.6101
vn 0.0687 0.9966 -0.0453
vn 0.5869 0.2591 -0.7671
vn -0.3928 -0.3461 -0.8520
vn -0.6925 -0.6906 0.2086
vn 0.1020 -0.2983 0.9490
vn 0.8927 0.2886 0.3460
vn -0.1020 0.2983 -0.9490
vn -0.8927 -0.2886 -0.3460
vn -0.5869 -0.2591 0.7671
vn 0.3928 0.3461 0.8520
vn 0.6925 0.6906 -0.2086
g Tree_lp_11.005_Tree_lp_11.005_Tree
usemtl Tree
s 1
f 49/89/81 50/90/81 51/91/81
f 52/92/82 50/93/82 49/89/82
f 53/94/83 50/95/83 52/92/83
f 54/96/84 50/97/84 53/94/84
f 51/98/85 50/99/85 54/96/85
f 55/100/86 56/101/86 57/102/86
f 57/102/87 56/103/87 58/104/87
f 58/104/88 56/105/88 59/106/88
f 59/106/89 56/107/89 60/108/89
f 60/108/90 56/109/90 55/110/90
f 49/89/91 51/91/91 55/100/91
f 52/92/92 49/89/92 57/102/92
f 53/94/93 52/92/93 58/104/93
f 54/96/94 53/94/94 59/106/94
f 51/98/95 54/96/95 60/108/95
f 55/100/96 57/102/96 49/89/96
f 57/102/97 58/104/97 52/92/97
f 58/104/98 59/106/98 53/94/98
f 59/106/99 60/108/99 54/96/99
f 60/108/100 55/110/100 51/98/100
f 61/111/101 62/112/101 63/113/101
f 64/114/102 61/111/102 63/115/102
f 65/116/103 64/114/103 63/117/103
f 66/118/104 65/116/104 63/119/104
f 62/120/105 66/118/105 63/121/105
f 67/122/106 68/123/106 69/124/106
f 68/123/107 70/125/107 69/126/107
f 70/125/108 71/127/108 69/128/108
f 71/127/109 72/129/109 69/130/109
f 72/129/110 67/131/110 69/132/110
f 61/111/111 67/122/111 62/112/111
f 64/114/112 68/123/112 61/111/112
f 65/116/113 70/125/113 64/114/113
f 66/118/114 71/127/114 65/116/114
f 62/120/115 72/129/115 66/118/115
f 67/122/116 61/111/116 68/123/116
f 68/123/117 64/114/117 70/125/117
f 70/125/118 65/116/118 71/127/118
f 71/127/119 66/118/119 72/129/119
f 72/129/120 62/120/120 67/131/120
f 73/133/121 74/134/121 75/135/121
f 76/136/122 73/133/122 75/137/122
f 77/138/123 76/136/123 75/139/123
f 78/140/124 77/138/124 75/141/124
f 74/142/125 78/140/125 75/143/125
f 79/144/126 80/145/126 81/146/126
f 80/145/127 82/147/127 81/148/127
f 82/147/128 83/149/128 81/150/128
f 83/149/129 84/151/129 81/152/129
f 84/151/130 79/153/130 81/154/130
f 73/133/131 79/144/131 74/134/131
f 76/136/132 80/145/132 73/133/132
f 77/138/133 82/147/133 76/136/133
f 78/140/134 83/149/134 77/138/134
f 74/142/135 84/151/135 78/140/135
f 79/144/136 73/133/136 80/145/136
f 80/145/137 76/136/137 82/147/137
f 82/147/138 77/138/138 83/149/138
f 83/149/139 78/140/139 84/151/139
f 84/151/140 74/142/140 79/153/140
